<svg width="384" height="347" xmlns="http://www.w3.org/2000/svg" xmlns:xlink="http://www.w3.org/1999/xlink" xml:space="preserve" overflow="hidden"><g transform="translate(-2198 -800)"><rect x="2246.5" y="833.5" width="260" height="260" stroke="#C00000" stroke-width="6.875" stroke-miterlimit="8" fill="none"/><rect x="2257.5" y="844.5" width="237" height="237" stroke="#C00000" stroke-width="6.875" stroke-miterlimit="8" fill="#C00000"/><path d="M2258.5 972.5 2258.5 846.5 2437.66 848.458 2495.11 901.442C2495.45 911.547 2495.79 964.289 2495.11 972.5" stroke="#C00000" stroke-width="6.875" stroke-miterlimit="8" fill="#FFFFFF" fill-rule="evenodd"/><path d="M2437.5 849.5 2438.84 904.5 2494.5 903.853" stroke="#C00000" stroke-width="6.875" stroke-miterlimit="8" fill="#FFFFFF" fill-rule="evenodd"/><path d="M2495.5 969.5 2495.5 1079.5 2258.5 1079.5 2258.5 969.5" stroke="#C00000" stroke-width="6.875" stroke-miterlimit="8" fill="#FFFFFF" fill-rule="evenodd"/><text fill="#C00000" font-family="Aptos,Aptos_MSFontService,sans-serif" font-weight="400" font-size="165" transform="matrix(1 0 0 1 2297.8 1002)">Aa</text><rect x="2273.5" y="1032.5" width="20" height="23.9998" stroke="#C00000" stroke-width="6.875" stroke-miterlimit="8" fill="#C00000"/><rect x="2310.5" y="1032.5" width="20.0002" height="23.9998" stroke="#C00000" stroke-width="6.875" stroke-miterlimit="8" fill="#C00000" fill-opacity="0.85098"/><rect x="2347.5" y="1032.5" width="21" height="23.9998" stroke="#C00000" stroke-width="6.875" stroke-miterlimit="8" fill="#C00000" fill-opacity="0.701961"/><rect x="2384.5" y="1032.5" width="21" height="23.9998" stroke="#C00000" stroke-width="6.875" stroke-miterlimit="8" fill="#C00000" fill-opacity="0.54902"/><rect x="2421.5" y="1032.5" width="21" height="23.9998" stroke="#C00000" stroke-width="6.875" stroke-miterlimit="8" fill="#C00000" fill-opacity="0.4"/><rect x="2458.5" y="1032.5" width="21" height="23.9998" stroke="#C00000" stroke-width="6.875" stroke-miterlimit="8" fill="#C00000" fill-opacity="0.25098"/></g></svg>