<svg width="300" height="229" xmlns="http://www.w3.org/2000/svg" xmlns:xlink="http://www.w3.org/1999/xlink" xml:space="preserve" overflow="hidden"><g transform="translate(-1585 -2102)"><path d="M1626.06 2105.5 1878.69 2105.5 1879.5 2326.5 1607.5 2325.64" stroke="#C00000" stroke-width="6.875" stroke-miterlimit="8" fill="none" fill-rule="evenodd"/><path d="M1609.36 2105.5 1879.5 2106.35 1878.64 2155.5 1608.5 2155.5" stroke="#C00000" stroke-width="6.875" stroke-miterlimit="8" fill="#C00000" fill-rule="evenodd" fill-opacity="0.160784"/><path d="M1785.5 2154.5 1785.5 2326.7" stroke="#C00000" stroke-width="6.875" stroke-miterlimit="8" fill="none" fill-rule="evenodd"/><path d="M1692.5 2154.5 1692.5 2326.7" stroke="#C00000" stroke-width="6.875" stroke-miterlimit="8" fill="none" fill-rule="evenodd"/><path d="M1608.5 2211.5 1880.52 2211.5" stroke="#C00000" stroke-width="6.875" stroke-miterlimit="8" fill="none" fill-rule="evenodd"/><path d="M1608.5 2269.5 1879.2 2269.5" stroke="#C00000" stroke-width="6.875" stroke-miterlimit="8" fill="none" fill-rule="evenodd"/><path d="M0 0 0.000360892 195.078" stroke="#C00000" stroke-width="6.875" stroke-miterlimit="8" fill="none" fill-rule="evenodd" transform="matrix(-1 0 0 1 1593.5 2105.5)"/><path d="M1585 2318C1585 2313.58 1588.58 2310 1593 2310 1597.42 2310 1601 2313.58 1601 2318 1601 2322.42 1597.42 2326 1593 2326 1588.58 2326 1585 2322.42 1585 2318Z" fill="#C00000" fill-rule="evenodd"/></g></svg>