<svg width="411" height="580" xmlns="http://www.w3.org/2000/svg" xmlns:xlink="http://www.w3.org/1999/xlink" xml:space="preserve" overflow="hidden"><g transform="translate(-2380 -404)"><text fill="#C00000" font-family="Aptos,Aptos_MSFontService,sans-serif" font-weight="400" font-size="202" transform="matrix(1 0 0 1 2501.85 651)">A</text><text fill="#C00000" font-family="Aptos,Aptos_MSFontService,sans-serif" font-weight="400" font-size="202" transform="matrix(1 0 0 1 2506.22 807)">Z</text><path d="M2726.8 520.5 2726.8 792.311 2714.2 792.311 2714.2 520.5ZM2757.52 738.653 2720.5 805.288 2683.48 738.653C2681.79 735.61 2682.89 731.773 2685.93 730.083 2688.97 728.393 2692.81 729.489 2694.5 732.532L2726.01 789.25 2714.99 789.25 2746.5 732.531C2748.19 729.489 2752.03 728.393 2755.07 730.083 2758.11 731.773 2759.21 735.61 2757.52 738.653Z" fill="#C00000"/></g></svg>