<svg width="310" height="247" xmlns="http://www.w3.org/2000/svg" xmlns:xlink="http://www.w3.org/1999/xlink" xml:space="preserve" overflow="hidden"><g transform="translate(-828 -2104)"><path d="M869.5 2108.5 1122.5 2108.5 1121.59 2179.5" stroke="#C00000" stroke-width="6.875" stroke-miterlimit="8" fill="none" fill-rule="evenodd"/><path d="M852.36 2107.5 1122.5 2108.36C1122.21 2125.08 1121.93 2108.94 1121.64 2158.5L851.5 2158.5" stroke="#C00000" stroke-width="6.875" stroke-miterlimit="8" fill="#C00000" fill-rule="evenodd" fill-opacity="0.160784"/><path d="M0 0 0.000360892 195.078" stroke="#C00000" stroke-width="6.875" stroke-miterlimit="8" fill="none" fill-rule="evenodd" transform="matrix(-1 0 0 1 837.5 2108.5)"/><path d="M828 2321.5C828 2316.81 831.806 2313 836.5 2313 841.194 2313 845 2316.81 845 2321.5 845 2326.19 841.194 2330 836.5 2330 831.806 2330 828 2326.19 828 2321.5Z" fill="#C00000" fill-rule="evenodd"/><path d="M0 0 108.23 0.000360892" stroke="#C00000" stroke-width="6.875" stroke-miterlimit="8" fill="none" fill-rule="evenodd" transform="matrix(-1 0 0 1 959.73 2322.5)"/><path d="M869.5 2185.5 932.172 2185.5" stroke="#C00000" stroke-width="6.875" stroke-miterlimit="8" fill="none" fill-rule="evenodd"/><path d="M869.5 2219.5 932.172 2219.5" stroke="#C00000" stroke-width="6.875" stroke-miterlimit="8" fill="none" fill-rule="evenodd"/><path d="M869.5 2255.5 932.172 2255.5" stroke="#C00000" stroke-width="6.875" stroke-miterlimit="8" fill="none" fill-rule="evenodd"/><path d="M869.5 2288.5 932.172 2288.5" stroke="#C00000" stroke-width="6.875" stroke-miterlimit="8" fill="none" fill-rule="evenodd"/><path d="M954.5 2185.5 1017.17 2185.5" stroke="#C00000" stroke-width="6.875" stroke-miterlimit="8" fill="none" fill-rule="evenodd"/><path d="M954.5 2219.5 1017.17 2219.5" stroke="#C00000" stroke-width="6.875" stroke-miterlimit="8" fill="none" fill-rule="evenodd"/><path d="M954.5 2255.5 1017.17 2255.5" stroke="#C00000" stroke-width="6.875" stroke-miterlimit="8" fill="none" fill-rule="evenodd"/><path d="M1036.5 2185.5 1076.37 2185.5" stroke="#C00000" stroke-width="6.875" stroke-miterlimit="8" fill="none" fill-rule="evenodd"/><path d="M986.721 2299.84C1027.88 2261.4 1068.4 2223.56 1109.56 2185.12 1113.31 2181.61 1121.5 2184.29 1127.85 2191.09L1127.85 2191.09C1134.2 2197.89 1136.31 2206.24 1132.56 2209.74L1009.72 2324.47 1009.42 2322.41C1008.3 2318 1004.95 2312.87 1001.41 2309.17 997.871 2305.47 992.499 2301.62 988.168 2300.21 987.474 2300.29 988.176 2300.06 986.721 2299.84Z" stroke="#C00000" stroke-width="6.875" stroke-miterlimit="8" fill="none" fill-rule="evenodd"/><path d="M1006.8 2327.19 962.908 2344.32 983.803 2302.56C987.466 2302.07 994.59 2304.32 1000.7 2311.22 1006.82 2318.12 1007.01 2324.49 1006.8 2327.19Z" stroke="#C00000" stroke-width="6.875" stroke-miterlimit="8" fill="none" fill-rule="evenodd"/><path d="M1113.94 2227.62C1114.84 2222.34 1111.26 2213.71 1107.25 2209.61 1103.24 2205.51 1096.63 2201.46 1089.87 2203.03" stroke="#C00000" stroke-width="6.875" stroke-miterlimit="8" fill="none" fill-rule="evenodd"/><path d="M1033.5 2319.5 1122.5 2317.78 1122.5 2240.5" stroke="#C00000" stroke-width="6.875" stroke-miterlimit="8" fill="none" fill-rule="evenodd"/></g></svg>